<svg xmlns="http://www.w3.org/2000/svg" width="14.96" height="14.4" viewBox="0 0 14.96 14.4">
  <g id="icon-arrow" transform="translate(-299.72 -1079.189)">
    <path id="Path_39" data-name="Path 39" d="M270.246,370.366l-6.38,6.381-6.38-6.381a.48.48,0,1,0-.679.679l6.72,6.72a.479.479,0,0,0,.679,0l6.72-6.72a.48.48,0,0,0-.679-.679Z" transform="translate(-70.505 1350.254) rotate(-90)" fill="#fff"/>
    <path id="Path_40" data-name="Path 40" d="M270.246,457.476l-6.38,6.38-6.381-6.38a.48.48,0,0,0-.679.679l6.72,6.72a.479.479,0,0,0,.679,0l6.72-6.72a.48.48,0,0,0-.679-.679Z" transform="translate(-150.335 1350.254) rotate(-90)" fill="#fff"/>
  </g>
</svg>
